<svg width="44" height="44" viewBox="0 0 44 44" fill="none" xmlns="http://www.w3.org/2000/svg">
<g clip-path="url(#clip0_6_30)">
<path d="M22 19.9833C20.8817 19.9833 19.9834 20.8817 19.9834 22C19.9834 23.1183 20.8817 24.0167 22 24.0167C23.1184 24.0167 24.0167 23.1183 24.0167 22C24.0167 20.8817 23.1184 19.9833 22 19.9833ZM22 3.66667C11.88 3.66667 3.66669 11.88 3.66669 22C3.66669 32.12 11.88 40.3333 22 40.3333C32.12 40.3333 40.3334 32.12 40.3334 22C40.3334 11.88 32.12 3.66667 22 3.66667ZM26.015 26.015L11 33L17.985 17.985L33 11L26.015 26.015Z" fill="#0C0D0E"/>
</g>
<defs>
<clipPath id="clip0_6_30">
<rect width="44" height="44" fill="white"/>
</clipPath>
</defs>
</svg>
