<svg width="200" height="200" viewBox="0 0 200 200" fill="none" xmlns="http://www.w3.org/2000/svg">
<rect width="200" height="200" fill="#0C0D0E"/>
<path d="M35.6115 31.0331C35.5183 31.0564 34.9707 31.138 34.3882 31.2079C30.4271 31.7438 27.3398 34.1554 26.2563 37.5573C26.0466 38.233 26 38.6408 26 39.8874C26.0117 42.497 26.699 44.8387 28.7961 49.4406C30.6718 53.5531 30.9863 54.2755 31.8834 56.6638C33.9921 62.2792 35.0173 66.9393 35.029 70.8305C35.029 71.2499 35.1338 71.9839 35.262 72.4615C35.9726 75.0945 35.961 74.9897 35.9843 77.2848L36.0192 79.4983L36.5086 80.6051C36.7649 81.2109 37.2076 82.4691 37.4755 83.4012C38.5124 87.0477 39.1765 88.5506 40.3531 89.9836C41.8327 91.7894 44.256 92.9893 47.4831 93.5486C49.021 93.8049 52.6791 94.0029 54.5432 93.9214C55.9645 93.8515 56.0228 93.933 54.8344 94.3524C53.4947 94.8184 51.5025 95.7155 50.8617 96.1349C49.2423 97.1718 48.4384 98.1737 47.0055 100.912C46.4229 102.018 45.7822 103.23 45.5608 103.626C44.99 104.663 44.5123 105.875 44.2793 106.888C44.0579 107.902 44.1045 109.311 44.4074 110.954C44.7337 112.748 44.5938 113.808 43.8133 115.346C42.8463 117.28 42.6249 118.305 43.056 119.004C43.324 119.435 45.1414 121.125 45.6657 121.416C45.8987 121.544 46.1666 121.602 46.3647 121.567C46.621 121.509 46.7608 121.567 46.9938 121.824C47.2851 122.138 47.2851 122.162 47.2035 123.303C47.0637 125.202 47.0521 125.167 48.1006 125.703C48.9627 126.134 49.1724 126.507 49.1025 127.497C49.0443 128.371 48.6481 129.222 47.8676 130.154C46.9239 131.272 46.8424 131.994 47.5414 133.323C47.786 133.812 48.252 134.359 49.0559 135.128C52.5277 138.449 52.9937 139.031 53.6228 140.895C53.8791 141.664 53.949 142.095 53.9956 143.307C54.0772 145.52 53.716 147.489 52.6325 150.821C52.0151 152.697 51.5957 153.594 50.1394 156.064C48.4384 158.977 48.2637 159.291 47.8093 160.41C46.6326 163.252 46.8074 165.489 48.3569 167.749C49.5452 169.485 50.6869 170.091 51.6539 169.497C52.7141 168.856 53.5296 166.374 54.1238 161.982C54.2519 161.015 54.4383 159.629 54.5432 158.883C55.0092 155.342 56.8499 152.219 59.4713 150.495C61.4052 149.225 62.9197 149.085 66.077 149.913C67.1954 150.204 68.407 150.437 69.106 150.495C69.8517 150.565 70.7953 150.751 71.7273 151.019C73.7195 151.602 74.4885 151.602 76.1545 151.031C76.8302 150.798 77.7505 150.553 78.2166 150.507C79.6845 150.332 80.4884 149.726 82.0378 147.641C82.8534 146.557 83.2378 146.161 84.1698 145.462C85.5446 144.414 86.5698 143.342 86.8611 142.678C87.0009 142.363 87.1057 141.734 87.1523 141.012C87.362 137.866 87.828 135.408 89.3892 129.163C91.2299 121.789 92.4881 117.21 93.7464 113.284C94.0726 112.259 94.6318 110.348 94.9813 109.032C95.6687 106.48 96.2162 104.721 96.4842 104.255C96.6356 103.987 96.6473 104.104 96.6589 105.478C96.6589 107.308 96.8454 111.059 97.0085 112.818C97.4512 117.42 98.29 120.274 99.4201 120.938C100.177 121.381 101.459 120.892 102.193 119.89C102.624 119.307 103.09 118.189 103.288 117.245C103.533 116.092 103.649 114.624 103.766 110.838C103.87 107.68 103.94 106.76 104.15 105.688L104.406 104.383L104.966 105.012C105.874 106.049 106.119 106.83 106.678 110.488C107.086 113.144 107.715 115.672 110.045 123.828C112.853 133.695 113.016 134.453 113.319 138.332C113.494 140.522 113.808 142.223 114.193 143.004C114.682 143.994 115.299 144.507 117.082 145.392C119.54 146.604 119.773 146.849 119.878 148.27C119.913 148.666 120.018 149.12 120.123 149.272C120.309 149.563 122.709 150.949 123.583 151.276C124.41 151.579 126.239 151.497 129.338 151.019C130.806 150.798 132.728 150.565 133.59 150.507C134.685 150.437 135.606 150.285 136.619 150.029C138.553 149.551 140.033 149.458 140.953 149.796C143.015 150.518 144.565 152.464 145.485 155.458C145.916 156.868 146.068 157.823 146.173 159.71C146.441 164.371 146.65 166.386 146.977 167.784C147.279 169.066 148.526 169.963 149.994 169.963C150.635 169.963 151.788 169.578 152.417 169.136C153.757 168.215 154.27 167.015 154.27 164.837C154.258 162.029 153.279 159.559 150.052 154.118C147.78 150.285 147.431 149.528 146.965 147.419C146.592 145.765 146.604 142.841 146.977 141.07C147.361 139.253 147.652 138.344 147.943 138.076C148.095 137.936 148.654 137.622 149.202 137.365C150.297 136.864 150.553 136.643 150.774 135.979C150.879 135.653 151.112 135.385 151.66 134.977C153.233 133.8 153.384 133.66 153.617 133.253C153.967 132.647 153.92 132.274 153.407 131.214C153.163 130.701 152.918 130.154 152.872 129.991C152.825 129.839 152.592 129.175 152.336 128.523C151.87 127.323 151.753 126.391 151.998 125.936C152.056 125.82 152.382 125.61 152.72 125.459C153.792 125.004 153.862 124.899 153.862 123.571C153.862 122.336 154.025 121.719 154.421 121.509C154.549 121.439 154.957 121.346 155.33 121.311C156.32 121.206 156.751 120.997 156.844 120.601C156.891 120.426 157.124 120.053 157.369 119.797C158.103 118.981 158.091 118.072 157.334 116.558C157.112 116.115 156.937 115.556 156.879 115.032C156.821 114.589 156.588 113.762 156.355 113.191C155.784 111.77 155.784 111.152 156.378 109.847C156.786 108.95 156.833 108.764 156.833 107.867C156.833 106.667 156.623 106.131 155.318 103.847C154.223 101.937 153.99 101.343 153.85 100.073C153.582 97.7194 152.359 96.7407 147.571 95.0514C146.254 94.5854 145.054 94.1311 144.891 94.0495C144.646 93.9214 145.078 93.8981 147.687 93.8981C150.786 93.8981 152.184 93.8049 153.769 93.4786C156.6 92.8845 159 91.568 161.143 89.4127C162.844 87.7118 163.159 86.9894 163.776 83.4012C164.009 82.0497 164.161 81.5138 164.79 79.7896C165.256 78.5197 165.664 75.8751 165.862 72.7412C166.176 67.9412 166.234 67.2189 166.456 65.949C166.933 63.1763 167.912 59.8443 169.415 55.9181C170.137 54.0075 170.452 53.2968 172.211 49.4406C173.644 46.3067 174.378 44.2679 174.844 42.1009C175.077 41.0407 175.042 38.5359 174.786 37.6738C174.296 36.0428 173.225 34.4933 171.885 33.4914C168.04 30.5904 161.586 30.5089 152.708 33.2584C146.988 35.0292 140.313 38.1282 135.979 41.0291C127.602 46.6212 120.064 54.124 114.775 62.1277C111.455 67.1723 109.358 71.4946 107.377 77.4479C106.748 79.3469 106.037 81.3624 105.793 81.9332C105.292 83.1332 105.338 83.1798 104.814 81.1294C104.628 80.3721 104.465 79.3352 104.406 78.5896C104.325 77.3081 104.115 76.3294 103.812 75.8634C103.661 75.6188 103.719 75.4673 104.569 73.7431C105.082 72.7295 105.839 71.3781 106.247 70.749C107.54 68.7684 108.752 66.5782 110.721 62.6753C112.806 58.5395 112.818 58.5162 114.985 55.1143C116.604 52.5629 116.849 52.0736 118.2 48.7998C118.946 47.0173 119.307 46.3067 120.356 44.6873C121.043 43.6038 121.765 42.3572 121.952 41.9029C122.464 40.6446 122.872 39.2815 122.872 38.7922C122.872 37.9301 122.989 37.6505 123.361 37.569C123.664 37.5107 123.769 37.3592 124.235 36.369C124.888 34.9593 125.086 34.3418 125.086 33.6195C125.086 33.0486 124.806 32.6059 124.457 32.6059C123.862 32.6059 122.895 34.6098 121.369 39.0252C120.169 42.4504 119.54 43.8718 116.814 49.1493C115.602 51.491 114.03 54.6017 113.307 56.0813C112.597 57.5492 111.525 59.5996 110.931 60.6249C109.544 63.0248 108.1 65.6694 106.387 68.9548C105.001 71.6227 104.744 72.0305 103.439 73.6848L102.682 74.6285L102.088 74.3955C101.669 74.2207 101.203 74.1508 100.48 74.1508C99.49 74.1392 99.4667 74.1392 99.2686 73.7897C98.5812 72.6013 97.0551 70.248 95.2609 67.615C94.1308 65.949 92.826 63.9335 92.3483 63.1297C91.8823 62.3258 91.1251 61.0909 90.6707 60.3919C90.2163 59.6812 89.4591 58.2249 88.9581 57.1065C88.4572 55.9997 87.9562 54.9162 87.828 54.7182C87.6999 54.5085 87.4319 53.856 87.2222 53.2852C86.7562 51.9687 85.696 49.7551 84.3796 47.3435C83.0048 44.8038 82.3524 43.4407 81.6301 41.5184C80.1622 37.6039 78.6127 34.1671 77.9136 33.2118C77.4942 32.6525 77.0981 32.5593 76.8069 32.9787C76.4457 33.4797 76.6671 34.5282 77.4942 36.2991C78.0535 37.4874 78.1467 37.6156 78.5544 37.6156C78.7758 37.6156 78.8107 37.6971 78.8573 38.4194C78.9039 39.0951 79.0204 39.4447 79.568 40.5514C79.9291 41.2854 80.8029 43.2426 81.5136 44.897C83.5873 49.7318 84.7757 51.9104 86.3135 53.6696C86.8028 54.2405 87.1523 54.7648 87.3271 55.2424C88.1542 57.3977 89.8435 60.5084 91.8241 63.5491C93.0707 65.4481 93.3619 65.9956 94.5036 68.547C95.5522 70.9004 96.6473 73.0208 97.3463 74.0809C97.9055 74.9431 97.9172 74.9547 97.7075 75.246C97.0201 76.2362 96.7871 77.0867 96.4259 79.9294C96.2861 81.0012 96.123 82.0963 96.0415 82.3643L95.9017 82.8652L95.5871 82.0497C95.4124 81.607 94.6668 79.4634 93.9328 77.2848C91.7775 70.8771 90.1115 67.3238 87.0591 62.6637C81.8747 54.7415 73.8827 46.8892 64.9119 40.9126C57.98 36.2874 48.0773 32.3263 40.7959 31.2545C39.7007 31.0914 35.9959 30.9283 35.6115 31.0331ZM66.1469 47.5882C69.3856 49.2425 72.0419 51.4677 73.5564 53.8094C73.9176 54.357 74.3836 55.0677 74.5933 55.3822C74.803 55.7084 76.0147 56.99 77.2729 58.2366C78.6243 59.5763 80.1272 61.2074 80.9194 62.186C82.1777 63.7471 82.9582 64.5161 84.2164 65.4015C85.1252 66.0422 85.8708 67.2189 88.3057 71.8208C89.5989 74.279 91.1367 76.8071 93.0474 79.6847C93.8046 80.8031 94.6784 82.1429 95.0046 82.6672L95.5871 83.5992L95.3308 84.3448C94.9697 85.3468 94.7833 85.4283 93.3386 85.2769C92.2085 85.1487 91.5561 84.939 89.1445 83.9371C88.4455 83.6458 87.6533 83.3779 87.3853 83.3313C86.9659 83.273 86.896 83.2847 86.8378 83.506C86.7912 83.7157 86.896 83.8089 87.6533 84.1584C89.1445 84.8458 90.6358 86.0458 91.7542 87.4671C92.3134 88.1778 92.7561 88.9816 92.6396 89.0865C92.6047 89.1331 90.2047 89.203 87.3038 89.2496C78.7059 89.3894 74.9312 89.669 69.1643 90.6243C65.5411 91.2301 64.1197 91.3699 62.6168 91.2884C59.4946 91.102 55.3937 89.7622 53.6112 88.3176C53.2384 88.0147 52.9121 87.7118 52.8888 87.6302C52.8189 87.4205 54.1937 86.8147 55.65 86.4302C57.6538 85.8943 60.1353 84.6361 62.3955 83.005L63.3624 82.306L62.512 82.1662C61.4052 81.9798 60.4499 82.0963 58.6208 82.6555C57.2344 83.0749 57.1995 83.0749 54.7179 83.1332L52.2131 83.1915L52.7257 82.7371C54.415 81.2692 56.3956 80.0226 58.1664 79.3236C60.6479 78.3566 62.8149 77.9605 66.6478 77.809C68.0459 77.7508 69.2109 77.6809 69.2458 77.6576C69.3507 77.5411 68.1391 76.609 67.475 76.2945C65.9139 75.5489 62.8848 75.013 60.2285 75.013C59.3082 75.013 57.9218 75.1295 56.2674 75.3625C54.8694 75.5489 53.1568 75.7586 52.4461 75.8285C51.7471 75.8867 50.9199 75.9683 50.617 76.0032C50.3025 76.0265 50.0578 76.0265 50.0578 76.0149C50.0578 75.8518 54.9859 73.6382 56.9198 72.9276C59.2615 72.0654 60.8227 71.7276 62.8382 71.6693C64.4459 71.6111 64.609 71.5878 64.6556 71.3781C64.7605 71.0169 64.0615 70.6907 61.8246 70.0616C59.9373 69.5373 56.9431 69.0713 55.4636 69.0713C55.0558 69.0713 54.7179 69.0247 54.7179 68.9665C54.7179 68.7917 57.4208 67.4636 58.5625 67.0791C59.4596 66.7762 59.914 66.6947 61.0091 66.6481C61.7431 66.6131 62.279 66.5665 62.2091 66.5432C61.7664 66.3917 62.244 66.3335 63.8052 66.3684C64.842 66.3917 65.5527 66.3684 65.5527 66.2985C65.5527 66.1471 64.7605 65.6112 64.2945 65.4481C63.7586 65.2617 63.0013 65.4015 62.3489 65.8209L61.7897 66.1704L61.4285 65.8209C61.2304 65.6345 60.8227 65.3665 60.5198 65.2267C59.8557 64.9355 58.1781 64.7258 57.281 64.8073C56.5587 64.8889 56.5237 64.9355 57.8752 64.085C58.3179 63.8054 58.679 63.5141 58.679 63.4442C58.6674 63.0831 58.4577 63.0015 57.4441 62.9782C56.582 62.9549 56.2907 62.8967 55.7082 62.6171L55.0092 62.2908L55.5917 62.0112C58.8654 60.4734 58.5975 60.5783 58.7839 60.8229C59.0868 61.2656 59.6227 61.3821 61.4052 61.3821C62.3372 61.3821 63.1178 61.3355 63.1527 61.2889C63.176 61.2423 62.1858 60.9977 60.9392 60.753C59.0984 60.3802 58.6441 60.2637 58.5509 60.0773C58.4693 59.9142 58.3179 59.8559 58.0616 59.8792C57.8519 59.8909 57.4558 59.8909 57.1645 59.8792L56.6402 59.8676L57.3393 59.4715C57.9101 59.1453 59.0402 58.7026 60.0654 58.3997C60.1586 58.3647 60.0538 58.2249 59.7625 58.0152C59.0402 57.4909 58.5159 57.2579 56.8732 56.722C56.0461 56.4541 55.3121 56.1861 55.2539 56.1279C55.0674 55.9647 56.1626 55.557 57.1295 55.4405C57.7237 55.3589 58.7256 55.3589 60.0188 55.4405C61.1139 55.4987 62.0809 55.557 62.1625 55.557C62.3955 55.557 61.6732 54.823 61.0207 54.392C60.147 53.8094 59.0984 53.658 56.5004 53.7162C54.2752 53.7745 54.2519 53.7745 54.45 53.5531C54.9742 52.9706 56.6286 52.2134 58.1548 51.8405C59.5878 51.491 60.3334 51.4444 62.3955 51.5959C65.4828 51.8172 66.1352 51.6192 66.1352 50.4658C66.1352 49.8017 65.7158 48.8581 64.8653 47.5882C64.1663 46.5513 64.1314 46.5513 66.1469 47.5882ZM136.421 47.6581C136.375 47.7396 136.13 48.1008 135.885 48.4503C135.082 49.6037 134.814 50.4076 135.047 50.9668C135.14 51.1881 135.221 51.3745 135.245 51.3862C135.268 51.3862 136.107 51.4328 137.12 51.4677L138.961 51.5376L138.169 52.0037L137.377 52.4697L140.114 52.5396C142.992 52.6211 143.633 52.7143 145.124 53.2968C146.639 53.8793 146.639 53.8793 144.53 53.9609C142.538 54.0308 141.023 54.2871 139.94 54.7182C139.625 54.8463 139.357 55.0094 139.369 55.0793C139.381 55.1492 139.392 55.2774 139.404 55.3706C139.415 55.4754 139.672 55.5453 140.266 55.5919C140.72 55.6269 141.815 55.8133 142.678 56.0113C143.54 56.2094 144.507 56.4075 144.821 56.4541L145.392 56.5473L143.714 57.1181C142.794 57.4327 141.699 57.8404 141.28 58.0152C140.546 58.3181 140.534 58.3414 140.872 58.4113C142.025 58.6676 142.468 58.8657 143.19 59.4132L143.971 60.019L143.412 60.3336C143.109 60.4967 142.538 60.8579 142.165 61.1258L141.478 61.6151L142.631 61.5918C143.901 61.5802 144.32 61.6967 144.984 62.2559L145.38 62.5821L144.518 62.9899C143.994 63.2345 143.505 63.386 143.248 63.3743C141.967 63.3394 142.747 64.3529 145.194 65.8908C145.369 65.9956 144.786 66.0306 142.421 66.0306C140.452 66.0422 139.415 66.0888 139.392 66.1587C139.369 66.2403 139.124 66.182 138.775 66.0306C137.994 65.6811 136.783 65.6811 136.014 66.0189C135.699 66.1587 135.454 66.2869 135.454 66.3218C135.454 66.3568 136.305 66.3801 137.342 66.3801C138.46 66.3801 139.252 66.4267 139.287 66.4966C139.415 66.683 139.998 66.8694 141.338 67.1141C142.946 67.4053 143.435 67.5917 144.658 68.3723L145.637 69.0014L144.297 69.1529C141.78 69.4325 138.938 70.1082 136.748 70.947L135.769 71.3198L136.049 71.5295C136.561 71.9256 137.715 72.4266 138.518 72.613C138.949 72.7179 140.103 72.9043 141.093 73.0324C143.225 73.3237 143.924 73.4868 145.241 74.046C146.196 74.4537 151.194 77.0168 151.136 77.0751C151.124 77.0984 150.402 76.9003 149.54 76.6556C148.654 76.3993 147.559 76.1663 147.035 76.1197C146.534 76.0848 143.726 76.1081 140.814 76.1663C135.256 76.2828 134.604 76.3527 133.043 76.9003C132.437 77.11 132.309 77.2032 132.309 77.4129C132.309 77.7508 132.472 77.7741 134.755 77.8556C139.427 78.042 143.761 79.4051 146.883 81.6769C147.92 82.4342 148.736 83.1099 148.736 83.2264C148.736 83.3313 144.728 83.2847 143.959 83.1565C143.54 83.0982 142.468 82.8536 141.559 82.6322C140.173 82.2944 139.765 82.2361 138.856 82.2594L137.773 82.2944L138.74 83.273C139.823 84.3565 141.035 85.207 142.666 86.0225C143.843 86.605 146.021 87.3739 147.198 87.6069C147.594 87.6885 147.92 87.7933 147.92 87.8516C147.92 87.8982 147.512 88.2826 147.023 88.702C144.6 90.7525 141.221 91.6379 136.899 91.335C135.035 91.2068 134.161 91.0903 129.454 90.3447C124.608 89.5758 121.136 89.3428 114.426 89.3428C111.932 89.3428 109.602 89.3078 109.276 89.2729L108.659 89.1913L109.218 88.1428C109.905 86.8147 110.732 85.9526 112.037 85.207C112.585 84.904 113.33 84.438 113.692 84.1934C114.309 83.7856 114.356 83.7274 114.216 83.506C114.018 83.1915 113.855 83.2381 111.397 84.4031C110.243 84.9506 108.927 85.5332 108.461 85.6846C107.54 85.9875 106.515 86.0691 106.119 85.8594C105.758 85.673 105.513 85.1137 105.478 84.4613C105.455 83.972 105.525 83.7973 106.049 82.9817C106.375 82.4808 107.773 80.3022 109.148 78.1585C114.064 70.481 115.09 68.9665 118.375 64.586C120.996 61.0792 121.567 60.3919 123.932 57.9453C125.82 55.988 126.775 54.8463 127.183 54.0425C127.998 52.4464 132.658 48.9746 135.489 47.8562C136.445 47.4833 136.55 47.46 136.421 47.6581ZM93.1639 91.0903C93.1639 91.9525 92.0338 92.8728 90.5775 93.1874C89.995 93.3272 89.9018 93.3738 89.9018 93.6185C89.9018 93.9214 89.8668 93.9214 91.1833 93.7699C92.4765 93.6185 92.861 93.7 93.3386 94.2243C96.123 97.2883 96.4609 97.8242 96.6822 99.5135L96.8104 100.504L95.6454 102.298C93.1522 106.096 92.3716 107.785 91.4862 111.327C90.3561 115.824 89.8435 118.865 89.6688 122.08C89.529 124.55 89.4474 125.039 88.8882 126.775C87.863 129.991 85.9174 133.847 84.8805 134.709C83.7388 135.676 83.2961 134.93 83.1796 131.808C83.1213 130.398 83.0747 130.037 82.9233 129.921C82.8184 129.851 82.7019 129.816 82.667 129.839C82.6204 129.862 82.2709 130.527 81.8864 131.307C80.8379 133.474 79.9175 134.604 79.3699 134.394C79.2651 134.348 79.102 134.115 78.9971 133.847C78.8923 133.591 78.7758 133.404 78.7292 133.439C78.6826 133.462 78.5777 133.695 78.4845 133.952C78.403 134.22 78.2865 134.429 78.2399 134.429C78.1816 134.429 77.9253 134.103 77.6573 133.695C76.4457 131.89 75.537 131.389 74.5351 131.994C74.3254 132.123 74.1157 132.193 74.0807 132.158C74.0458 132.123 74.2322 130.981 74.5001 129.618C74.7681 128.266 75.0127 126.868 75.0593 126.53C75.1409 125.831 75.0127 124.527 74.8613 124.527C74.6982 124.527 71.3079 126.822 70.5623 127.451C70.1779 127.765 69.6536 128.243 69.3973 128.511L68.9313 129V128.639C68.9313 128.22 69.374 126.88 70.1546 125.028C70.9118 123.164 71.1448 121.94 70.9584 120.775L70.8769 120.333L70.306 120.857C69.9798 121.148 69.6536 121.381 69.572 121.381C69.3856 121.381 69.0827 120.938 68.9779 120.507C68.8847 120.111 68.0692 119.237 67.8595 119.307C67.6964 119.366 67.4983 119.738 67.3352 120.274C67.2653 120.531 67.1022 120.694 66.7177 120.88C65.6343 121.393 65.6226 121.393 66.077 120.426C66.2983 119.96 66.741 118.818 67.0672 117.886C67.7896 115.824 68.0692 115.195 68.6866 114.298L69.1526 113.599L68.7915 113.529C66.7177 113.109 64.6789 114.111 61.1722 117.269C58.5858 119.599 57.2927 120.682 57.1062 120.682C57.0713 120.682 57.2927 120.379 57.6072 120.006C58.3528 119.156 59.2149 117.944 60.7528 115.626L61.9761 113.762L61.6149 113.447L61.2537 113.121L62.0576 112.585C63.3974 111.7 63.9217 110.861 63.5256 110.255C63.0828 109.579 62.4421 109.44 59.3431 109.311L57.6189 109.241L58.7606 108.577C62.2091 106.585 64.4459 104.756 65.1682 103.358C65.4828 102.741 65.4944 102.729 65.2731 102.554C65.11 102.438 64.7139 102.391 63.9333 102.391C63.3158 102.391 62.6168 102.356 62.3605 102.31C61.9178 102.24 61.9295 102.228 63.176 101.797C63.8634 101.552 64.7605 101.191 65.1566 100.993C65.844 100.655 67.475 99.4902 67.3818 99.397C67.3585 99.3737 66.9857 99.3504 66.5546 99.3387C65.576 99.3154 65.7042 99.1756 67.1022 98.7329C68.5934 98.2553 69.5837 98.0689 71.005 97.999L72.3215 97.9291L71.774 97.3698C71.1681 96.7524 70.4575 96.4029 69.572 96.2631L68.9895 96.1815L69.7468 95.9252C71.1914 95.4359 71.9953 94.8534 72.1351 94.2126C72.24 93.7583 71.8439 92.966 71.2031 92.3835C70.9118 92.1156 70.6788 91.8826 70.6788 91.8709C70.6788 91.8593 71.005 91.8243 71.4128 91.8127C71.8089 91.7894 73.5215 91.603 75.2224 91.3816C76.9234 91.1602 78.601 90.9622 78.9505 90.9389C79.3 90.9156 82.6437 90.8923 86.3834 90.8806C93.1522 90.8573 93.1639 90.8573 93.1639 91.0903ZM125.668 91.1486C127.427 91.3932 129.07 91.7894 129.944 92.1971L130.596 92.4884L130.095 92.9311C129.641 93.3388 129.594 93.432 129.536 94.0262C129.501 94.5505 129.536 94.7951 129.746 95.2262C130.177 96.1 130.41 96.1932 131.68 95.9252C132.018 95.8553 132.052 95.8786 132.111 96.1932C132.157 96.4378 132.355 96.6708 132.728 96.9388L133.264 97.3232L131.423 97.3815L129.583 97.4397L130.188 97.9291C131.016 98.5815 132.251 99.0708 133.87 99.3853C134.616 99.5368 135.221 99.6766 135.221 99.7115C135.221 99.7465 134.802 100.049 134.289 100.399C133.777 100.748 133.357 101.04 133.357 101.04C133.357 101.051 133.975 101.04 134.72 101.016C135.804 100.981 136.317 101.028 137.132 101.214C138.041 101.436 140.278 102.24 140.662 102.484C140.744 102.543 140.347 102.554 139.777 102.531C139.089 102.496 138.425 102.543 137.773 102.682C136.783 102.88 134.988 103.51 134.988 103.649C134.988 103.789 135.746 104.686 136.107 104.989C136.526 105.339 137.249 105.711 138.215 106.073C139.427 106.527 140.045 106.888 140.895 107.61C141.862 108.449 142.771 109.043 144.006 109.638C144.53 109.882 144.798 110.057 144.623 110.022C142.468 109.591 139.695 109.393 138.67 109.614C137.761 109.801 137.26 110.267 137.365 110.803C137.4 111.001 137.575 111.339 137.726 111.548C138.052 111.968 139.171 112.806 139.998 113.238L140.522 113.517L139.73 113.575L138.938 113.634L140.569 116.08C141.466 117.42 142.549 118.969 142.992 119.505C143.423 120.041 143.866 120.589 143.959 120.717C144.192 121.043 143.062 120.274 140.918 118.643C139.963 117.933 138.274 116.814 137.097 116.138C135.932 115.463 134.639 114.612 134.208 114.239C133.427 113.564 133.171 113.459 132.915 113.715C132.367 114.263 133.241 116.546 135.384 120.158C135.99 121.171 136.468 122.033 136.445 122.057C136.386 122.115 135.513 121.602 133.602 120.356L131.924 119.272L132.006 119.657C132.309 121.125 132.227 121.358 131.319 121.614C130.654 121.8 130.235 122.255 130.119 122.907C129.955 123.839 130.165 124.585 131.086 126.449C131.645 127.567 131.983 128.406 132.041 128.779L132.111 129.362L131.132 128.441C129.722 127.125 126.717 124.771 126.204 124.573C125.983 124.492 125.855 125.587 125.959 126.6C126.006 127.031 126.251 128.395 126.507 129.641C126.752 130.876 126.95 131.971 126.926 132.053C126.903 132.158 126.74 132.111 126.379 131.866C125.726 131.424 125.225 131.412 124.818 131.82C124.491 132.146 124.375 132.414 123.804 134.278C123.431 135.478 123.303 135.676 123.163 135.257C123.093 135.012 122.697 134.825 122.406 134.884C122.313 134.907 122.068 135.07 121.847 135.257C121.392 135.664 121.241 135.676 120.926 135.326C120.565 134.942 120.356 134.464 120.134 133.556C120.018 133.101 119.808 132.507 119.668 132.216C119.4 131.68 118.596 130.853 118.095 130.585L117.839 130.445L117.921 131.89C118.002 133.474 117.874 134.93 117.56 135.711L117.361 136.2L117.012 135.548C116.826 135.187 116.255 134.453 115.765 133.917C114.729 132.775 114.484 132.332 114.484 131.587C114.484 131.132 114.449 131.051 114.251 131.051C113.983 131.051 113.936 130.958 113.389 129.525C112.631 127.486 112.119 125.319 111.455 121.381C110.791 117.432 110.266 115.09 109.3 111.653C108.123 107.506 106.958 104.64 105.28 101.832L104.558 100.62L104.639 99.9096C104.919 97.2999 105.956 95.1213 107.284 94.3524C108.181 93.8398 109.043 93.8631 110.127 94.4107C110.849 94.7718 110.942 94.7951 111.105 94.632C111.257 94.4689 111.245 94.4223 110.942 94.201C108.472 92.3835 108.193 92.0923 108.193 91.3V90.834L116.208 90.8923C122.989 90.9272 124.433 90.9738 125.668 91.1486Z" fill="#F4EFED"/>
</svg>
