<svg width="49" height="46" viewBox="0 0 49 46" fill="none" xmlns="http://www.w3.org/2000/svg">
<path d="M3.16082 0.010903C3.13017 0.0185656 2.9501 0.0453847 2.75854 0.0683725C1.45589 0.244612 0.440599 1.03769 0.0842886 2.15643C0.0153252 2.37865 0 2.51274 0 2.92269C0.0038313 3.7809 0.229878 4.55099 0.919512 6.06436C1.53635 7.41681 1.6398 7.65435 1.93481 8.43976C2.62827 10.2865 2.96543 11.819 2.96926 13.0986C2.96926 13.2366 3.00374 13.4779 3.04588 13.635C3.27959 14.5009 3.27576 14.4664 3.28342 15.2212L3.29492 15.9491L3.45583 16.3131C3.54012 16.5123 3.68571 16.9261 3.77383 17.2326C4.11482 18.4318 4.3332 18.926 4.72016 19.3973C5.20674 19.9911 6.00365 20.3858 7.06492 20.5697C7.57065 20.6539 8.77368 20.7191 9.38668 20.6923C9.8541 20.6693 9.87326 20.6961 9.48247 20.834C9.04187 20.9873 8.38672 21.2823 8.17599 21.4202C7.64344 21.7612 7.37908 22.0907 6.90783 22.991C6.71627 23.355 6.50555 23.7535 6.43275 23.8837C6.24502 24.2247 6.08794 24.6232 6.01131 24.9565C5.93851 25.2898 5.95384 25.7534 6.05345 26.2936C6.16073 26.8836 6.11475 27.2323 5.85806 27.738C5.54006 28.374 5.46727 28.7112 5.60902 28.9411C5.69714 29.0828 6.29483 29.6383 6.46723 29.7341C6.54386 29.7763 6.63198 29.7954 6.69711 29.7839C6.7814 29.7648 6.82738 29.7839 6.904 29.8682C6.99979 29.9717 6.99979 29.9793 6.97297 30.3548C6.92699 30.9793 6.92316 30.9678 7.26798 31.144C7.55149 31.2858 7.62046 31.4084 7.59747 31.7341C7.57831 32.0214 7.44805 32.3011 7.19135 32.6076C6.88101 32.9754 6.8542 33.213 7.08407 33.6497C7.16453 33.8106 7.31778 33.9907 7.58214 34.2436C8.72387 35.3355 8.87712 35.5271 9.08401 36.1401C9.1683 36.3929 9.19129 36.5347 9.20661 36.9331C9.23343 37.6611 9.11466 38.3086 8.75835 39.4043C8.55529 40.0212 8.41737 40.3162 7.93845 41.1284C7.37908 42.0862 7.32161 42.1897 7.17219 42.5575C6.78523 43.4923 6.8427 44.2279 7.35226 44.9712C7.74306 45.5421 8.11852 45.7413 8.43652 45.5459C8.78517 45.3352 9.05336 44.5191 9.24876 43.0747C9.2909 42.7567 9.3522 42.3008 9.38668 42.0556C9.53994 40.8909 10.1453 39.8641 11.0073 39.2971C11.6433 38.8794 12.1414 38.8335 13.1797 39.1055C13.5475 39.2013 13.9459 39.2779 14.1758 39.2971C14.421 39.32 14.7313 39.3813 15.0379 39.4695C15.693 39.661 15.9459 39.661 16.4937 39.4733C16.716 39.3967 17.0186 39.3162 17.1719 39.3009C17.6546 39.2434 17.919 39.0442 18.4286 38.3584C18.6967 38.0021 18.8232 37.8718 19.1297 37.6419C19.5818 37.2971 19.9189 36.9446 20.0147 36.7263C20.0607 36.6228 20.0952 36.4159 20.1105 36.1784C20.1795 35.1439 20.3327 34.3355 20.8461 32.2819C21.4514 29.8567 21.8652 28.351 22.279 27.0599C22.3863 26.7227 22.5702 26.0944 22.6851 25.6615C22.9112 24.8224 23.0912 24.2439 23.1794 24.0906C23.2292 24.0025 23.233 24.0408 23.2368 24.4929C23.2368 25.0944 23.2981 26.3281 23.3518 26.9066C23.4974 28.42 23.7732 29.3587 24.1449 29.577C24.3939 29.7226 24.8153 29.5617 25.0567 29.2322C25.1985 29.0407 25.3517 28.6729 25.4168 28.3625C25.4973 27.9832 25.5356 27.5005 25.5739 26.2553C25.6084 25.217 25.6314 24.9144 25.7004 24.5619L25.7846 24.1328L25.9686 24.3397C26.2674 24.6806 26.3478 24.9373 26.5318 26.1404C26.6658 27.0139 26.8727 27.8453 27.639 30.5272C28.5623 33.7723 28.616 34.0214 28.7156 35.2972C28.7731 36.0175 28.8765 36.5768 29.0029 36.8335C29.1639 37.1592 29.3669 37.3278 29.9531 37.6189C30.7615 38.0174 30.8381 38.0979 30.8726 38.5653C30.8841 38.6955 30.9186 38.845 30.9531 38.8948C31.0144 38.9906 31.8036 39.4465 32.091 39.5538C32.363 39.6534 32.9645 39.6265 33.9836 39.4695C34.4664 39.3967 35.0985 39.32 35.3821 39.3009C35.7422 39.2779 36.0449 39.2281 36.3782 39.1438C37.0142 38.9867 37.5008 38.9561 37.8034 39.0672C38.4816 39.3047 38.9911 39.9445 39.2938 40.9292C39.4356 41.3928 39.4854 41.7069 39.5199 42.3276C39.608 43.8601 39.6769 44.5229 39.7842 44.9827C39.8838 45.4041 40.2938 45.6992 40.7765 45.6992C40.9872 45.6992 41.3665 45.5727 41.5734 45.4271C42.014 45.1245 42.1826 44.7298 42.1826 44.0134C42.1788 43.09 41.857 42.2778 40.7957 40.4886C40.0486 39.2281 39.9336 38.9791 39.7804 38.2856C39.6578 37.7415 39.6616 36.7799 39.7842 36.1975C39.9107 35.5999 40.0064 35.301 40.1022 35.2129C40.152 35.1669 40.3359 35.0635 40.516 34.9792C40.8761 34.8144 40.9604 34.7416 41.0332 34.5233C41.0677 34.416 41.1443 34.3279 41.3244 34.1938C41.8416 33.8068 41.8914 33.7608 41.9681 33.6267C42.083 33.4275 42.0677 33.3049 41.8991 32.9563C41.8186 32.7877 41.7382 32.6076 41.7229 32.554C41.7075 32.5042 41.6309 32.2858 41.5466 32.0712C41.3934 31.6766 41.3551 31.3701 41.4355 31.2207C41.4547 31.1824 41.5619 31.1134 41.673 31.0636C42.0255 30.9142 42.0485 30.8797 42.0485 30.4429C42.0485 30.0368 42.1022 29.8337 42.2324 29.7648C42.2746 29.7418 42.4087 29.7111 42.5313 29.6996C42.8569 29.6652 42.9987 29.5962 43.0293 29.4659C43.0447 29.4085 43.1213 29.2859 43.2017 29.2016C43.4431 28.9334 43.4393 28.6345 43.1902 28.1365C43.1174 27.9909 43.06 27.807 43.0408 27.6346C43.0217 27.489 42.945 27.217 42.8684 27.0292C42.6807 26.5618 42.6807 26.3588 42.8761 25.9296C43.0102 25.6346 43.0255 25.5733 43.0255 25.2783C43.0255 24.8837 42.9565 24.7075 42.5274 23.9565C42.1673 23.3282 42.0907 23.1328 42.0447 22.7152C41.9566 21.9413 41.5543 21.6194 39.9796 21.0639C39.5467 20.9106 39.1521 20.7612 39.0984 20.7344C39.018 20.6923 39.1597 20.6846 40.0179 20.6846C41.0371 20.6846 41.4968 20.6539 42.0179 20.5467C42.9489 20.3513 43.7381 19.9183 44.4431 19.2095C45.0024 18.6502 45.1059 18.4126 45.309 17.2326C45.3856 16.7882 45.4354 16.6119 45.6423 16.0449C45.7955 15.6273 45.9296 14.7576 45.9948 13.727C46.0982 12.1485 46.1174 11.9109 46.1902 11.4933C46.3472 10.5815 46.6691 9.48571 47.1633 8.19456C47.4008 7.56623 47.5043 7.33252 48.0828 6.06436C48.5541 5.03374 48.7954 4.36326 48.9487 3.65064C49.0253 3.30199 49.0138 2.47826 48.9295 2.19474C48.7686 1.65836 48.4161 1.1488 47.9755 0.819307C46.7112 -0.134686 44.5887 -0.161506 41.6692 0.742681C39.7881 1.32504 37.5927 2.34416 36.1675 3.29816C33.4128 5.13718 30.9339 7.60454 29.1945 10.2366C28.1026 11.8956 27.413 13.317 26.7616 15.2748C26.5547 15.8993 26.321 16.5621 26.2406 16.7499C26.0758 17.1445 26.0912 17.1598 25.9187 16.4855C25.8574 16.2365 25.8038 15.8955 25.7846 15.6503C25.7578 15.2288 25.6889 14.907 25.5893 14.7537C25.5394 14.6733 25.5586 14.6235 25.8383 14.0564C26.0069 13.7231 26.2559 13.2787 26.39 13.0718C26.8153 12.4205 27.2137 11.7002 27.8612 10.4167C28.547 9.0566 28.5508 9.04894 29.2635 7.9302C29.796 7.09115 29.8765 6.93023 30.3209 5.85364C30.5661 5.26745 30.6849 5.03374 31.0297 4.50119C31.2557 4.14488 31.4933 3.73493 31.5546 3.58551C31.7232 3.17173 31.8573 2.72346 31.8573 2.56255C31.8573 2.27903 31.8956 2.18708 32.0182 2.16026C32.1178 2.14111 32.1523 2.0913 32.3055 1.76564C32.5201 1.30205 32.5852 1.09899 32.5852 0.861452C32.5852 0.673718 32.4933 0.528129 32.3783 0.528129C32.1829 0.528129 31.8649 1.18711 31.363 2.63917C30.9684 3.76558 30.7615 4.233 29.865 5.96857C29.4665 6.73867 28.9493 7.76162 28.7118 8.2482C28.4781 8.73094 28.1256 9.40525 27.9302 9.74241C27.4743 10.5317 26.9992 11.4014 26.436 12.4818C25.98 13.3592 25.8958 13.4932 25.4667 14.0373L25.2176 14.3476L25.0222 14.271C24.8843 14.2135 24.731 14.1905 24.4935 14.1905C24.1678 14.1867 24.1602 14.1867 24.095 14.0718C23.869 13.681 23.3671 12.9071 22.7771 12.0412C22.4054 11.4933 21.9763 10.8305 21.8193 10.5661C21.666 10.3018 21.417 9.89566 21.2675 9.66578C21.1181 9.43207 20.8691 8.95316 20.7043 8.58535C20.5396 8.22138 20.3749 7.86507 20.3327 7.79994C20.2906 7.73097 20.2024 7.51642 20.1335 7.32869C19.9802 6.89575 19.6316 6.1678 19.1986 5.37472C18.7466 4.5395 18.532 4.09124 18.2945 3.45907C17.8117 2.17176 17.3022 1.04152 17.0723 0.727356C16.9343 0.543454 16.8041 0.512803 16.7083 0.65073C16.5895 0.815476 16.6623 1.16029 16.9343 1.74265C17.1182 2.13344 17.1489 2.17559 17.283 2.17559C17.3558 2.17559 17.3673 2.20241 17.3826 2.43995C17.3979 2.66216 17.4362 2.7771 17.6163 3.14108C17.7351 3.38245 18.0224 4.02611 18.2561 4.57015C18.9381 6.16014 19.3289 6.87659 19.8346 7.45512C19.9956 7.64285 20.1105 7.81526 20.168 7.97234C20.44 8.68114 20.9955 9.70409 21.6468 10.7041C22.0568 11.3286 22.1526 11.5086 22.528 12.3477C22.8729 13.1216 23.233 13.8189 23.4629 14.1676C23.6468 14.4511 23.6506 14.4549 23.5817 14.5507C23.3556 14.8763 23.279 15.156 23.1602 16.0909C23.1142 16.4433 23.0606 16.8035 23.0338 16.8916L22.9878 17.0564L22.8844 16.7882C22.8269 16.6426 22.5817 15.9376 22.3403 15.2212C21.6315 13.1139 21.0836 11.9454 20.0798 10.4129C18.3749 7.8076 15.7466 5.2253 12.7965 3.25985C10.5169 1.73882 7.26031 0.436177 4.86575 0.0836977C4.50561 0.0300595 3.28726 -0.0235787 3.16082 0.010903ZM13.2027 5.45518C14.2678 5.99923 15.1413 6.731 15.6394 7.50109C15.7581 7.68117 15.9114 7.91488 15.9804 8.01832C16.0493 8.1256 16.4478 8.54704 16.8616 8.95699C17.306 9.39759 17.8002 9.93397 18.0607 10.2558C18.4745 10.7692 18.7312 11.0221 19.145 11.3132C19.4438 11.524 19.6891 11.9109 20.4898 13.4243C20.9151 14.2327 21.4208 15.0641 22.0491 16.0104C22.2982 16.3782 22.5855 16.8188 22.6928 16.9912L22.8844 17.2977L22.8001 17.5429C22.6813 17.8724 22.62 17.8992 22.1449 17.8494C21.7733 17.8073 21.5587 17.7383 20.7656 17.4088C20.5358 17.3131 20.2752 17.2249 20.1871 17.2096C20.0492 17.1905 20.0262 17.1943 20.007 17.2671C19.9917 17.336 20.0262 17.3667 20.2752 17.4816C20.7656 17.7077 21.2561 18.1023 21.6239 18.5697C21.8078 18.8034 21.9533 19.0678 21.915 19.1023C21.9035 19.1176 21.1143 19.1406 20.1603 19.1559C17.3328 19.2019 16.0915 19.2938 14.195 19.608C13.0034 19.8072 12.536 19.8532 12.0418 19.8264C11.015 19.7651 9.66637 19.3245 9.08018 18.8494C8.95758 18.7498 8.8503 18.6502 8.84264 18.6234C8.81965 18.5544 9.27175 18.3552 9.75066 18.2287C10.4096 18.0525 11.2257 17.6387 11.969 17.1023L12.287 16.8725L12.0073 16.8265C11.6433 16.7652 11.3292 16.8035 10.7276 16.9874C10.2717 17.1253 10.2602 17.1253 9.44415 17.1445L8.62042 17.1636L8.789 17.0142C9.34454 16.5315 9.99586 16.1215 10.5782 15.8916C11.3943 15.5736 12.1069 15.4434 13.3674 15.3936C13.8272 15.3744 14.2103 15.3514 14.2218 15.3438C14.2563 15.3055 13.8578 14.9989 13.6394 14.8955C13.126 14.6503 12.1299 14.4741 11.2564 14.4741C10.9537 14.4741 10.4978 14.5124 9.95372 14.589C9.49396 14.6503 8.93076 14.7193 8.69705 14.7423C8.46717 14.7614 8.19515 14.7882 8.09554 14.7997C7.99209 14.8074 7.91163 14.8074 7.91163 14.8036C7.91163 14.7499 9.53227 14.022 10.1683 13.7883C10.9384 13.5047 11.4518 13.3936 12.1146 13.3745C12.6433 13.3553 12.6969 13.3477 12.7123 13.2787C12.7467 13.1599 12.5169 13.0526 11.7812 12.8458C11.1606 12.6734 10.1759 12.5201 9.68936 12.5201C9.55526 12.5201 9.44415 12.5048 9.44415 12.4856C9.44415 12.4281 10.333 11.9914 10.7085 11.8649C11.0035 11.7653 11.1529 11.7385 11.5131 11.7232C11.7544 11.7117 11.9307 11.6964 11.9077 11.6887C11.7621 11.6389 11.9192 11.6197 12.4326 11.6312C12.7736 11.6389 13.0073 11.6312 13.0073 11.6082C13.0073 11.5584 12.7467 11.3822 12.5935 11.3286C12.4172 11.2673 12.1682 11.3132 11.9537 11.4512L11.7698 11.5661L11.651 11.4512C11.5859 11.3899 11.4518 11.3017 11.3521 11.2558C11.1338 11.16 10.5821 11.091 10.287 11.1178C10.0495 11.1447 10.038 11.16 10.4824 10.8803C10.628 10.7884 10.7468 10.6926 10.7468 10.6696C10.743 10.5508 10.674 10.524 10.3407 10.5163C10.0572 10.5087 9.96138 10.4895 9.76981 10.3976L9.53994 10.2903L9.7315 10.1983C10.8081 9.6926 10.72 9.72708 10.7813 9.80754C10.8809 9.95313 11.0571 9.99144 11.6433 9.99144C11.9498 9.99144 12.2065 9.97611 12.218 9.96079C12.2257 9.94546 11.9 9.86501 11.4901 9.78455C10.8847 9.66195 10.7353 9.62364 10.7047 9.56233C10.6778 9.5087 10.628 9.48954 10.5437 9.4972C10.4748 9.50103 10.3445 9.50103 10.2487 9.4972L10.0763 9.49337L10.3062 9.36311C10.4939 9.25583 10.8656 9.11024 11.2027 9.01063C11.2334 8.99913 11.1989 8.95316 11.1031 8.88419C10.8656 8.71179 10.6932 8.63516 10.1529 8.45892C9.88092 8.3708 9.63955 8.28268 9.62039 8.26352C9.55909 8.20989 9.91924 8.07579 10.2372 8.03748C10.4326 8.01066 10.7621 8.01066 11.1874 8.03748C11.5475 8.05663 11.8655 8.07579 11.8924 8.07579C11.969 8.07579 11.7314 7.83442 11.5169 7.69266C11.2295 7.50109 10.8847 7.45129 10.0303 7.47044C9.29856 7.4896 9.2909 7.4896 9.35603 7.41681C9.52844 7.22524 10.0725 6.97621 10.5744 6.85361C11.0456 6.73867 11.2908 6.72334 11.969 6.77315C12.9843 6.84594 13.1988 6.78081 13.1988 6.40151C13.1988 6.18313 13.0609 5.87279 12.7812 5.45518C12.5513 5.11419 12.5398 5.11419 13.2027 5.45518ZM36.3131 5.47817C36.2977 5.50499 36.2173 5.62376 36.1368 5.7387C35.8725 6.118 35.7843 6.38236 35.861 6.56626C35.8916 6.63905 35.9184 6.70035 35.9261 6.70418C35.9338 6.70418 36.2096 6.71951 36.5429 6.731L37.1483 6.75399L36.8878 6.90724L36.6272 7.0605L37.5276 7.08348C38.4739 7.1103 38.6846 7.14095 39.175 7.33252C39.6731 7.52408 39.6731 7.52408 38.9796 7.5509C38.3245 7.57389 37.8264 7.65818 37.4701 7.79994C37.3667 7.84208 37.2785 7.89572 37.2824 7.91871C37.2862 7.94169 37.29 7.98384 37.2939 8.01449C37.2977 8.04897 37.382 8.07196 37.5774 8.08728C37.7268 8.09878 38.087 8.16008 38.3705 8.22521C38.654 8.29034 38.972 8.35547 39.0754 8.3708L39.2632 8.40145L38.7115 8.58918C38.4088 8.69263 38.0486 8.82672 37.9107 8.88419C37.6693 8.98381 37.6655 8.99147 37.7766 9.01446C38.1559 9.09875 38.3015 9.16388 38.539 9.34395L38.7957 9.54318L38.6118 9.64662C38.5122 9.70026 38.3245 9.81903 38.2019 9.90715L37.9758 10.0681L38.3551 10.0604C38.7728 10.0566 38.9107 10.0949 39.1291 10.2788L39.2593 10.3861L38.9758 10.5202C38.8034 10.6006 38.6425 10.6504 38.5582 10.6466C38.1368 10.6351 38.3935 10.9684 39.198 11.4742C39.2555 11.5086 39.0639 11.5201 38.2862 11.5201C37.6387 11.524 37.2977 11.5393 37.29 11.5623C37.2824 11.5891 37.2019 11.5699 37.087 11.5201C36.8303 11.4052 36.4318 11.4052 36.179 11.5163C36.0755 11.5623 35.9951 11.6044 35.9951 11.6159C35.9951 11.6274 36.2747 11.6351 36.6157 11.6351C36.9835 11.6351 37.2441 11.6504 37.2556 11.6734C37.2977 11.7347 37.4893 11.796 37.9299 11.8764C38.4586 11.9722 38.6195 12.0335 39.0218 12.2902L39.3436 12.4971L38.903 12.5469C38.0755 12.6389 37.1406 12.8611 36.4203 13.1369L36.0985 13.2595L36.1905 13.3285C36.359 13.4588 36.7383 13.6235 37.0027 13.6848C37.1445 13.7193 37.5238 13.7806 37.8494 13.8227C38.5505 13.9185 38.7804 13.9722 39.2134 14.1561C39.5275 14.2902 41.1711 15.133 41.152 15.1522C41.1482 15.1599 40.9106 15.0947 40.6271 15.0143C40.3359 14.93 39.9758 14.8534 39.8034 14.838C39.6386 14.8265 38.7153 14.8342 37.7575 14.8534C35.9299 14.8917 35.7154 14.9147 35.202 15.0947C35.0028 15.1637 34.9606 15.1943 34.9606 15.2633C34.9606 15.3744 35.0143 15.3821 35.7652 15.4089C37.3015 15.4702 38.7268 15.9185 39.7536 16.6656C40.0946 16.9146 40.3627 17.1368 40.3627 17.1751C40.3627 17.2096 39.0448 17.1943 38.7919 17.1521C38.654 17.133 38.3015 17.0525 38.0027 16.9797C37.5467 16.8686 37.4126 16.8495 37.1138 16.8571L36.7575 16.8686L37.0755 17.1905C37.4318 17.5468 37.8303 17.8264 38.3666 18.0946C38.7536 18.2862 39.4701 18.5391 39.857 18.6157C39.9873 18.6425 40.0946 18.677 40.0946 18.6962C40.0946 18.7115 39.9605 18.8379 39.7995 18.9758C39.0026 19.6501 37.8916 19.9413 36.4701 19.8417C35.8571 19.7996 35.5698 19.7613 34.0219 19.5161C32.4281 19.2632 31.2864 19.1866 29.0796 19.1866C28.2597 19.1866 27.4934 19.1751 27.3861 19.1636L27.1831 19.1368L27.367 18.7919C27.593 18.3552 27.865 18.0717 28.2942 17.8264C28.4742 17.7268 28.7194 17.5736 28.8382 17.4931C29.0413 17.359 29.0566 17.3399 29.0106 17.2671C28.9455 17.1636 28.8918 17.179 28.0834 17.5621C27.7041 17.7422 27.2712 17.9337 27.1179 17.9835C26.8153 18.0831 26.4781 18.11 26.3478 18.041C26.2291 17.9797 26.1486 17.7958 26.1371 17.5812C26.1295 17.4203 26.1525 17.3629 26.3249 17.0947C26.4321 16.9299 26.8919 16.2135 27.344 15.5085C28.9608 12.9837 29.298 12.4856 30.3784 11.045C31.2404 9.89183 31.4282 9.66578 32.2059 8.86121C32.8266 8.21755 33.1407 7.84208 33.2748 7.57772C33.543 7.05283 35.0756 5.91111 36.0066 5.5433C36.3207 5.4207 36.3552 5.41304 36.3131 5.47817ZM22.0874 19.7613C22.0874 20.0448 21.7158 20.3474 21.2369 20.4509C21.0453 20.4969 21.0147 20.5122 21.0147 20.5926C21.0147 20.6923 21.0032 20.6923 21.4361 20.6425C21.8614 20.5926 21.9878 20.6195 22.1449 20.7919C23.0606 21.7995 23.1717 21.9757 23.2445 22.5313L23.2866 22.8569L22.9035 23.447C22.0836 24.696 21.8269 25.2515 21.5357 26.4162C21.1641 27.8951 20.9955 28.8951 20.9381 29.9525C20.8921 30.7647 20.8653 30.9257 20.6814 31.4965C20.3442 32.554 19.7044 33.8221 19.3634 34.1056C18.9879 34.4236 18.8423 34.1784 18.804 33.1516C18.7849 32.6881 18.7695 32.5693 18.7197 32.531C18.6852 32.508 18.6469 32.4965 18.6354 32.5042C18.6201 32.5118 18.5052 32.7302 18.3787 32.9869C18.0339 33.6995 17.7313 34.0712 17.5512 34.0022C17.5167 33.9869 17.4631 33.9102 17.4286 33.8221C17.3941 33.7378 17.3558 33.6765 17.3405 33.688C17.3251 33.6957 17.2907 33.7723 17.26 33.8566C17.2332 33.9447 17.1949 34.0137 17.1795 34.0137C17.1604 34.0137 17.0761 33.9064 16.988 33.7723C16.5895 33.1785 16.2907 33.0137 15.9612 33.213C15.8922 33.2551 15.8233 33.2781 15.8118 33.2666C15.8003 33.2551 15.8616 32.8796 15.9497 32.4314C16.0378 31.9869 16.1183 31.5272 16.1336 31.4161C16.1604 31.1862 16.1183 30.7571 16.0685 30.7571C16.0148 30.7571 14.8999 31.5119 14.6547 31.7187C14.5283 31.8222 14.3559 31.9793 14.2716 32.0674L14.1183 32.2283V32.1095C14.1183 31.9716 14.2639 31.531 14.5206 30.9218C14.7697 30.3088 14.8463 29.9065 14.785 29.5234L14.7582 29.3778L14.5704 29.5502C14.4632 29.646 14.3559 29.7226 14.3291 29.7226C14.2678 29.7226 14.1681 29.577 14.1337 29.4353C14.103 29.305 13.8348 29.0177 13.7659 29.0407C13.7122 29.0598 13.6471 29.1824 13.5935 29.3587C13.5705 29.443 13.5168 29.4966 13.3904 29.5579C13.0341 29.7265 13.0303 29.7265 13.1797 29.4085C13.2525 29.2552 13.3981 28.8797 13.5053 28.5732C13.7429 27.8951 13.8348 27.6882 14.0379 27.3932L14.1911 27.1633L14.0724 27.1403C13.3904 27.0024 12.7199 27.3319 11.5667 28.3702C10.7161 29.1364 10.2909 29.4928 10.2296 29.4928C10.2181 29.4928 10.2909 29.3931 10.3943 29.2705C10.6395 28.9909 10.923 28.5924 11.4288 27.83L11.8311 27.217L11.7123 27.1135L11.5935 27.0062L11.8579 26.83C12.2985 26.5388 12.4709 26.263 12.3406 26.0637C12.195 25.8415 11.9843 25.7956 10.9652 25.7534L10.3981 25.7304L10.7736 25.512C11.9077 24.8569 12.6433 24.2554 12.8808 23.7956C12.9843 23.5926 12.9881 23.5887 12.9153 23.5313C12.8617 23.4929 12.7314 23.4776 12.4747 23.4776C12.2717 23.4776 12.0418 23.4661 11.9575 23.4508C11.8119 23.4278 11.8157 23.424 12.2257 23.2822C12.4517 23.2018 12.7467 23.083 12.877 23.0179C13.103 22.9068 13.6394 22.5236 13.6088 22.493C13.6011 22.4853 13.4785 22.4776 13.3368 22.4738C13.0149 22.4662 13.0571 22.4202 13.5168 22.2746C14.0072 22.1175 14.3329 22.0562 14.8003 22.0332L15.2332 22.0102L15.0532 21.8263C14.8539 21.6233 14.6202 21.5083 14.3291 21.4624L14.1375 21.4355L14.3865 21.3512C14.8616 21.1903 15.126 20.9988 15.1719 20.788C15.2064 20.6386 15.0762 20.3781 14.8654 20.1865C14.7697 20.0984 14.693 20.0218 14.693 20.018C14.693 20.0141 14.8003 20.0026 14.9344 19.9988C15.0647 19.9911 15.6279 19.9298 16.1872 19.857C16.7466 19.7842 17.2983 19.7191 17.4133 19.7114C17.5282 19.7038 18.6278 19.6961 19.8576 19.6923C22.0836 19.6846 22.0874 19.6846 22.0874 19.7613ZM32.7768 19.7804C33.3553 19.8609 33.8955 19.9911 34.1829 20.1252L34.3974 20.221L34.2327 20.3666C34.0832 20.5007 34.0679 20.5313 34.0488 20.7267C34.0373 20.8992 34.0488 20.9796 34.1177 21.1214C34.2595 21.4087 34.3361 21.4394 34.7537 21.3512C34.8648 21.3283 34.8763 21.3359 34.8955 21.4394C34.9108 21.5198 34.9759 21.5964 35.0985 21.6846L35.2748 21.811L34.6694 21.8302L34.0641 21.8493L34.2633 22.0102C34.5353 22.2248 34.9415 22.3857 35.474 22.4891C35.7192 22.5389 35.9184 22.5849 35.9184 22.5964C35.9184 22.6079 35.7805 22.7075 35.6119 22.8225C35.4434 22.9374 35.3054 23.0332 35.3054 23.0332C35.3054 23.037 35.5085 23.0332 35.7537 23.0255C36.11 23.014 36.2786 23.0294 36.5468 23.0907C36.8456 23.1635 37.5812 23.4278 37.7077 23.5083C37.7345 23.5274 37.6042 23.5313 37.4165 23.5236C37.1904 23.5121 36.972 23.5274 36.7575 23.5734C36.4318 23.6385 35.8418 23.8454 35.8418 23.8914C35.8418 23.9374 36.0908 24.2324 36.2096 24.332C36.3475 24.4469 36.5851 24.5695 36.9031 24.6883C37.3015 24.8377 37.5046 24.9565 37.7843 25.194C38.1023 25.4699 38.4011 25.6653 38.8072 25.8607C38.9796 25.9411 39.0678 25.9986 39.0103 25.9871C38.3015 25.8454 37.3897 25.7802 37.0525 25.853C36.7537 25.9143 36.5889 26.0676 36.6234 26.2438C36.6349 26.3089 36.6924 26.4201 36.7422 26.489C36.8494 26.6269 37.2172 26.9028 37.4893 27.0446L37.6617 27.1365L37.4012 27.1557L37.1406 27.1748L37.677 27.9794C37.972 28.42 38.3283 28.9296 38.4739 29.1058C38.6157 29.282 38.7613 29.4621 38.7919 29.5043C38.8685 29.6115 38.4969 29.3587 37.7919 28.8223C37.4778 28.5886 36.9222 28.2208 36.5353 27.9986C36.1521 27.7763 35.7269 27.4967 35.5851 27.374C35.3284 27.1518 35.2441 27.1174 35.1598 27.2016C34.9798 27.3817 35.2671 28.1326 35.9721 29.3203C36.1713 29.6537 36.3284 29.9372 36.3207 29.9449C36.3016 29.964 36.0142 29.7954 35.3859 29.3855L34.8342 29.0292L34.861 29.1556C34.9606 29.6383 34.9338 29.715 34.635 29.7993C34.4166 29.8606 34.2786 30.01 34.2403 30.2245C34.1867 30.531 34.2557 30.7762 34.5583 31.3893C34.7422 31.7571 34.8533 32.0329 34.8725 32.1555L34.8955 32.3471L34.5737 32.0444C34.1101 31.6115 33.1216 30.8375 32.953 30.7724C32.8802 30.7456 32.8381 31.1057 32.8726 31.4391C32.8879 31.5808 32.9683 32.0291 33.0526 32.439C33.1331 32.8451 33.1982 33.2053 33.1906 33.2321C33.1829 33.2666 33.1293 33.2513 33.0105 33.1708C32.7959 33.0252 32.6312 33.0214 32.4971 33.1555C32.3898 33.2628 32.3515 33.3509 32.1638 33.9639C32.0412 34.3585 31.999 34.4236 31.953 34.2857C31.9301 34.2053 31.7998 34.144 31.704 34.1631C31.6734 34.1708 31.5929 34.2244 31.5201 34.2857C31.3707 34.4198 31.3209 34.4236 31.2174 34.3087C31.0987 34.1823 31.0297 34.0252 30.9569 33.7263C30.9186 33.5769 30.8496 33.3815 30.8037 33.2857C30.7155 33.1095 30.4512 32.8375 30.2864 32.7494L30.2021 32.7034L30.229 33.1785C30.2558 33.6995 30.2136 34.1784 30.1102 34.4351L30.0451 34.596L29.9301 34.3815C29.8688 34.2627 29.6811 34.0214 29.5202 33.8451C29.1792 33.4696 29.0987 33.3241 29.0987 33.0789C29.0987 32.9294 29.0872 32.9026 29.0221 32.9026C28.934 32.9026 28.9187 32.872 28.7386 32.4007C28.4895 31.7302 28.321 31.0176 28.1026 29.7226C27.8842 28.4238 27.7118 27.6537 27.3938 26.5235C27.0068 25.1596 26.6237 24.2171 26.072 23.2937L25.8345 22.8953L25.8613 22.6615C25.9532 21.8033 26.2942 21.0869 26.731 20.834C27.026 20.6654 27.3095 20.6731 27.6658 20.8532C27.9034 20.9719 27.934 20.9796 27.9876 20.926C28.0375 20.8723 28.0336 20.857 27.934 20.7842C27.1218 20.1865 27.0298 20.0907 27.0298 19.8302V19.677L29.6658 19.6961C31.8956 19.7076 32.3707 19.7229 32.7768 19.7804Z" fill="#F4EFED"/>
</svg>
