<svg width="44" height="44" viewBox="0 0 44 44" fill="none" xmlns="http://www.w3.org/2000/svg">
<g clip-path="url(#clip0_13_2)">
<path d="M16.5 23.8334C20.5501 23.8334 23.8334 20.5501 23.8334 16.5C23.8334 12.4499 20.5501 9.16669 16.5 9.16669C12.4499 9.16669 9.16669 12.4499 9.16669 16.5C9.16669 20.5501 12.4499 23.8334 16.5 23.8334Z" fill="#0C0D0E"/>
<path d="M16.5 27.5C11.605 27.5 1.83334 29.9567 1.83334 34.8334V38.5H31.1667V34.8334C31.1667 29.9567 21.395 27.5 16.5 27.5ZM30.7267 9.82669L27.6467 12.925C29.1867 15.0884 29.1867 17.8934 27.6467 20.0567L30.7267 23.155C34.43 19.4517 34.43 13.86 30.7267 9.82669ZM36.795 3.66669L33.8067 6.65502C38.885 12.1917 38.885 20.515 33.8067 26.345L36.795 29.3334C43.945 22.2017 43.9633 11.0917 36.795 3.66669Z" fill="#0C0D0E"/>
</g>
<defs>
<clipPath id="clip0_13_2">
<rect width="44" height="44" fill="white"/>
</clipPath>
</defs>
</svg>
